<svg xmlns="http://www.w3.org/2000/svg" width="66.81" height="66.81" viewBox="0 0 66.81 66.81"><defs><style>
      .b8d96bd7-452e-453c-84aa-d673f4c68c9e {
        fill: #0f4e8b;
      }
    </style></defs><g id="bebdd115-f7e7-4584-b292-545abda28831" data-name="Livello 2"><g id="ec64a28a-d2fa-409e-8518-c0fd54f271fd" data-name="Livello 1"><g><rect class="b8d96bd7-452e-453c-84aa-d673f4c68c9e" x="6.47" y="21.55" width="4.31" height="2.16"></rect><path class="b8d96bd7-452e-453c-84aa-d673f4c68c9e" d="M63.57,17.24A3.24,3.24,0,0,0,66.81,14V3.23A3.24,3.24,0,0,0,63.57,0H48.49a3.23,3.23,0,0,0-3.23,3.23V14a3.23,3.23,0,0,0,3.23,3.23h3.23V19.4H49.57v2.15H55V32.33H50.51a7.49,7.49,0,0,0-3.11-1.84c0-.11,0-.21,0-.32a8.61,8.61,0,0,0-15.88-4.63A8.53,8.53,0,0,0,28,24.78,8.68,8.68,0,0,0,20,30.34a7.4,7.4,0,0,0-2.27.91h-8V28H14a3.24,3.24,0,0,0,3.23-3.24V3.23A3.23,3.23,0,0,0,14,0H3.23A3.23,3.23,0,0,0,0,3.23V24.78A3.24,3.24,0,0,0,3.23,28H7.54V33.4h7.85a7.7,7.7,0,0,0-1,2.16H9.7V47.41H5.39a3.23,3.23,0,0,0-3.23,3.23v9.7H0v3.23a3.24,3.24,0,0,0,3.23,3.24H20.47a3.25,3.25,0,0,0,3.24-3.24V60.34H21.55v-9.7a3.23,3.23,0,0,0-3.23-3.23H11.85v-9.7H14a7.55,7.55,0,0,0,7.54,7.55H45.26a7.54,7.54,0,0,0,7.45-6.47h4.4v8.62H49.57v19.4H66.81V47.41H59.26V36.64H52.71A7.54,7.54,0,0,0,52,34.48h5.07V21.55H62.5V19.4H60.34V17.24Zm-48.48,0H2.16V6.47H15.09ZM3.23,2.16H14a1.08,1.08,0,0,1,1.08,1.07V4.31H2.16V3.23A1.07,1.07,0,0,1,3.23,2.16ZM2.16,24.78V19.4H15.09v5.38A1.08,1.08,0,0,1,14,25.86H3.23a1.07,1.07,0,0,1-1.07-1.08ZM21.55,63.57a1.08,1.08,0,0,1-1.08,1.08H3.23a1.07,1.07,0,0,1-1.07-1.08V62.5H21.55ZM19.4,50.64v9.7H4.31v-9.7a1.07,1.07,0,0,1,1.08-1.07H18.32a1.08,1.08,0,0,1,1.08,1.07Zm32.32,14V58.19H64.65v6.46ZM64.65,56H51.72V49.57H64.65ZM45.26,43.1H21.55a5.38,5.38,0,0,1-.65-10.73l.71-.09.2-.68a6.46,6.46,0,0,1,9.59-3.7l1,.64.51-1.1a6.45,6.45,0,0,1,12.23,3.73L45,32.23l1.06.16a5.39,5.39,0,0,1-.81,10.71ZM48.49,2.16H63.57a1.07,1.07,0,0,1,1.08,1.07v7.55H47.41V3.23a1.07,1.07,0,0,1,1.08-1.07ZM47.41,14V12.93H64.65V14a1.08,1.08,0,0,1-1.08,1.08H48.49A1.08,1.08,0,0,1,47.41,14ZM58.19,19.4H53.88V17.24h4.31Z"></path><rect class="b8d96bd7-452e-453c-84aa-d673f4c68c9e" x="53.88" y="51.72" width="2.16" height="2.16"></rect><rect class="b8d96bd7-452e-453c-84aa-d673f4c68c9e" x="60.34" y="60.34" width="2.16" height="2.16"></rect><rect class="b8d96bd7-452e-453c-84aa-d673f4c68c9e" x="58.19" y="51.72" width="4.31" height="2.16"></rect><rect class="b8d96bd7-452e-453c-84aa-d673f4c68c9e" x="53.88" y="60.34" width="4.31" height="2.16"></rect></g></g></g></svg>