<svg xmlns="http://www.w3.org/2000/svg" width="69.77" height="60.99" viewBox="0 0 69.77 60.99"><defs><style>
      .a870cbd5-cb57-4ad3-baa3-7be8f278c4dd {
        fill: #0f4e8b;
      }
    </style></defs><g id="e81cfaca-26f9-4c52-b22e-2cd894a884ce" data-name="Livello 2"><g id="ad3d9bea-cd50-4b4a-b7a6-9856ce8dbc96" data-name="Livello 1"><g><g><path class="a870cbd5-cb57-4ad3-baa3-7be8f278c4dd" d="M30.84,25.09a13.92,13.92,0,0,0,8.44,6.59,14.2,14.2,0,0,0,3.76.51A14,14,0,1,0,36.12,6h0a14,14,0,0,0-5.28,19.07ZM37.18,7.9A11.83,11.83,0,0,1,54.42,21.35,11.83,11.83,0,0,1,32.72,24,11.84,11.84,0,0,1,37.18,7.9Z"></path><path class="a870cbd5-cb57-4ad3-baa3-7be8f278c4dd" d="M49.57,14.48c.08.15.16.29.23.44L51.74,14c-.09-.18-.19-.37-.3-.56a9.59,9.59,0,0,0-4-3.85l-1,1.91A7.48,7.48,0,0,1,49.57,14.48Z"></path><path class="a870cbd5-cb57-4ad3-baa3-7be8f278c4dd" d="M50.45,19.38l2.13.34a9.75,9.75,0,0,0-.07-3.45l-2.11.43A7.31,7.31,0,0,1,50.45,19.38Z"></path><path class="a870cbd5-cb57-4ad3-baa3-7be8f278c4dd" d="M25.92,54.66A23.08,23.08,0,0,0,45.75,36.17a16.64,16.64,0,0,0,2.69-.62l3.12,5.51-1.32.75,10.22,18L64.56,61l4.08-2.32,1.13-4.1-10.22-18-1.32.75-3.11-5.5A18.22,18.22,0,0,0,58.84,9.23,18.19,18.19,0,0,0,27.3,9a23.72,23.72,0,0,0-4.21-.39A23.11,23.11,0,0,0,1.59,23.3l2,.79A21.85,21.85,0,0,1,5.12,21a23.42,23.42,0,0,0,5.54,2.83,38.92,38.92,0,0,0-.78,6.86H2.18A20.81,20.81,0,0,1,2.94,26L.87,25.44A23.12,23.12,0,0,0,19.46,54.55M35.11,4.24A16,16,0,0,1,58.47,22.47,16,16,0,1,1,35.11,4.24ZM24.17,52.55V41.93H22V52.55c-2.44-.46-4.74-2.47-6.57-5.78a25.88,25.88,0,0,1-2.23-5.66,36.08,36.08,0,0,1,9.88-1.33A36.18,36.18,0,0,1,33,41.11a24.46,24.46,0,0,1-2.53,6.17C28.67,50.28,26.47,52.11,24.17,52.55ZM12,32.82H22v4.82A38.2,38.2,0,0,0,12.72,39a36.31,36.31,0,0,1-.69-6.2Zm-1.37,6.87A23.5,23.5,0,0,0,5.13,42.5a20.73,20.73,0,0,1-2.95-9.68h7.7A39.14,39.14,0,0,0,10.66,39.69ZM33.46,39a37.59,37.59,0,0,0-9.29-1.38V32.82h8A17.77,17.77,0,0,0,34.09,34,36.23,36.23,0,0,1,33.46,39ZM24.17,10.94a6.36,6.36,0,0,1,1.89.69,18.26,18.26,0,0,0-.4,12c-.5,0-1,.06-1.49.07Zm-2.16,0V23.7a35.49,35.49,0,0,1-8.8-1.32,25.88,25.88,0,0,1,2.23-5.66C17.27,13.41,19.57,11.4,22,10.94Zm2.16,14.91c.77,0,1.53-.06,2.29-.12.22.48.46,1,.73,1.43a17.9,17.9,0,0,0,2.59,3.51H24.17ZM6.31,19.19a20.72,20.72,0,0,1,10-7.25,17.72,17.72,0,0,0-2.7,3.74,27.89,27.89,0,0,0-2.4,6A21.08,21.08,0,0,1,6.31,19.19Zm6.41,5.28A37.72,37.72,0,0,0,22,25.85v4.82H12a36.31,36.31,0,0,1,.69-6.2ZM6.33,44.29a20.89,20.89,0,0,1,4.83-2.5,28,28,0,0,0,2.4,6,18.14,18.14,0,0,0,2.68,3.72,21.06,21.06,0,0,1-9.91-7.24ZM21.62,54.83h2.15M41.08,42.52a21.43,21.43,0,0,0-3.17-1.84L37,42.62a18.59,18.59,0,0,1,2.9,1.69,20.8,20.8,0,0,1-10,7.25,17.57,17.57,0,0,0,2.38-3.18A31.44,31.44,0,0,0,36.18,35a18.31,18.31,0,0,0,6.87,1.34h.47a21.09,21.09,0,0,1-2.44,6.15Zm9.4-7.74c.5-.23,1-.48,1.5-.76s1-.58,1.42-.9l3,5.22L53.43,40ZM66.8,57.24l-2.53,1.43L61.89,58l-8.72-15.4,5.57-3.15,8.72,15.39Z"></path></g><polygon class="a870cbd5-cb57-4ad3-baa3-7be8f278c4dd" points="2.94 26.02 3.62 24.03 1.59 23.3 0.85 25.52 2.94 26.02"></polygon></g></g></g></svg>