<svg xmlns="http://www.w3.org/2000/svg" width="69.11" height="66.81" viewBox="0 0 69.11 66.81"><defs><style>
      .e0cd7dbf-21b8-413b-abf3-ef610cabc440 {
        fill: #0f4e8b;
      }
    </style></defs><g id="e1fb4434-7bb6-4972-b463-973ce51686d3" data-name="Livello 2"><g id="ea54fc41-2ab9-4887-ae37-ecd069984952" data-name="Livello 1"><g><path class="e0cd7dbf-21b8-413b-abf3-ef610cabc440" d="M68,43.77H1.15A1.16,1.16,0,0,1,0,42.62v-38A4.62,4.62,0,0,1,4.61,0H64.5a4.62,4.62,0,0,1,4.61,4.61v38A1.16,1.16,0,0,1,68,43.77ZM2.3,41.47H66.81V4.61A2.32,2.32,0,0,0,64.5,2.3H4.61A2.32,2.32,0,0,0,2.3,4.61Z"></path><path class="e0cd7dbf-21b8-413b-abf3-ef610cabc440" d="M64.5,53H4.61A4.61,4.61,0,0,1,0,48.38V42.62a1.15,1.15,0,0,1,1.15-1.15H68a1.15,1.15,0,0,1,1.15,1.15v5.76A4.61,4.61,0,0,1,64.5,53ZM2.3,43.77v4.61a2.31,2.31,0,0,0,2.31,2.3H64.5a2.31,2.31,0,0,0,2.31-2.3V43.77Z"></path><path class="e0cd7dbf-21b8-413b-abf3-ef610cabc440" d="M38,48.38H31.1a1.16,1.16,0,0,1,0-2.31H38a1.16,1.16,0,0,1,0,2.31Z"></path><path class="e0cd7dbf-21b8-413b-abf3-ef610cabc440" d="M63.35,43.77H5.76a1.15,1.15,0,0,1-1.15-1.15V5.76A1.14,1.14,0,0,1,5.76,4.61H63.35A1.14,1.14,0,0,1,64.5,5.76V42.62A1.15,1.15,0,0,1,63.35,43.77ZM6.91,41.47H62.2V6.91H6.91Z"></path><path class="e0cd7dbf-21b8-413b-abf3-ef610cabc440" d="M49.53,66.81H19.58a3.46,3.46,0,0,1,0-6.92h30a3.46,3.46,0,0,1,0,6.92ZM19.58,62.2a1.15,1.15,0,1,0,0,2.3h30a1.15,1.15,0,1,0,0-2.3Z"></path><path class="e0cd7dbf-21b8-413b-abf3-ef610cabc440" d="M47.22,62.2H21.88a1.16,1.16,0,0,1,0-2.31c3.83,0,5.76-2.71,5.76-8.06a1.16,1.16,0,0,1,1.16-1.15H40.31a1.16,1.16,0,0,1,1.16,1.15c0,5.35,1.93,8.06,5.75,8.06a1.16,1.16,0,1,1,0,2.31ZM27.5,59.89H41.62A11,11,0,0,1,39.19,53H29.92A11.09,11.09,0,0,1,27.5,59.89Z"></path><path class="e0cd7dbf-21b8-413b-abf3-ef610cabc440" d="M51,39.16a1.15,1.15,0,0,1-.82-.34L47.37,36l-1.63,1.63a1.16,1.16,0,0,1-1.09.31,1.13,1.13,0,0,1-.82-.79L40.37,25.67a1.15,1.15,0,0,1,.29-1.14,1.13,1.13,0,0,1,1.14-.29l11.52,3.45a1.17,1.17,0,0,1,.79.82,1.15,1.15,0,0,1-.31,1.1l-1.54,1.55L55,33.94a1.15,1.15,0,0,1,0,1.63l-3.26,3.25A1.13,1.13,0,0,1,51,39.16Zm-3.6-5.75a1.49,1.49,0,0,1,1.07.44L51,36.38l1.63-1.63-2.68-2.67a1.3,1.3,0,0,1,0-1.84l.89-.9-7.62-2.28,2.29,7.62.83-.83A1.51,1.51,0,0,1,47.37,33.41Z"></path><path class="e0cd7dbf-21b8-413b-abf3-ef610cabc440" d="M48.38,17.28H16.13A1.16,1.16,0,0,1,15,16.13V10.37a1.16,1.16,0,0,1,1.16-1.16H48.38a1.16,1.16,0,0,1,1.15,1.16v5.76A1.16,1.16,0,0,1,48.38,17.28ZM17.28,15H47.22V11.52H17.28Z"></path><path class="e0cd7dbf-21b8-413b-abf3-ef610cabc440" d="M30,28.8H20.73a1.16,1.16,0,0,1-1.15-1.16V23a1.16,1.16,0,0,1,1.15-1.16H30A1.16,1.16,0,0,1,31.1,23v4.6A1.16,1.16,0,0,1,30,28.8Zm-8.07-2.31H28.8v-2.3H21.88Z"></path><path class="e0cd7dbf-21b8-413b-abf3-ef610cabc440" d="M43.55,33.4H16.13A1.15,1.15,0,0,1,15,32.25V10.37a1.16,1.16,0,0,1,1.16-1.16H48.38a1.16,1.16,0,0,1,1.15,1.16v17a1.16,1.16,0,0,1-1.48,1.1l-4.86-1.45,1.46,4.86a1.15,1.15,0,0,1-1.1,1.48ZM17.28,31.1H42l-1.63-5.43a1.15,1.15,0,0,1,.29-1.14,1.13,1.13,0,0,1,1.14-.29l5.42,1.62V11.52H17.28Z"></path></g></g></g></svg>