<svg xmlns="http://www.w3.org/2000/svg" width="61.87" height="61.87" viewBox="0 0 61.87 61.87"><defs><style>
      .fb72d0d0-af5f-4ec3-a4b6-34b003dfab5e {
        fill: #0f4e8b;
      }
    </style></defs><g id="a3d9dffa-2d81-42fe-b733-f715b82d5547" data-name="Livello 2"><g id="fdc47e50-aa51-4db3-9225-b8bfe0e9eff9" data-name="Livello 1"><g><path class="fb72d0d0-af5f-4ec3-a4b6-34b003dfab5e" d="M60.84,0H1A1,1,0,0,0,0,1H0V21.65H2.06V2.06H59.8V24.75H23.72v2.06H60.84a1,1,0,0,0,1-1h0V1A1,1,0,0,0,60.84,0Z"></path><rect class="fb72d0d0-af5f-4ec3-a4b6-34b003dfab5e" x="34.03" y="5.16" width="20.62" height="2.06"></rect><rect class="fb72d0d0-af5f-4ec3-a4b6-34b003dfab5e" x="37.12" y="11.34" width="20.62" height="2.06"></rect><rect class="fb72d0d0-af5f-4ec3-a4b6-34b003dfab5e" x="33" y="17.53" width="20.62" height="2.06"></rect><path class="fb72d0d0-af5f-4ec3-a4b6-34b003dfab5e" d="M32.91,8.89A3.32,3.32,0,0,0,28.56,7.1l-.08,0-8.36,4.34a5,5,0,0,0,.5-2.19,5.16,5.16,0,1,0-10.31,0,5.07,5.07,0,0,0,1.06,3.09h0A7.09,7.09,0,0,0,4.75,17L2,26.44a3.3,3.3,0,0,0,4.31,4.25,3.36,3.36,0,0,0,1.89-2l1.08-3.43V40.2A5.14,5.14,0,0,0,2.59,48,4.77,4.77,0,0,0,0,52.19v8.65a1,1,0,0,0,1,1H11.34a1,1,0,0,0,1-1h0V52.19a4.72,4.72,0,0,0-1.84-3.73h7.81a4.72,4.72,0,0,0-1.84,3.73v8.65a1,1,0,0,0,1,1H27.84a1,1,0,0,0,1-1h0V52.19A4.75,4.75,0,0,0,26.28,48a5.15,5.15,0,0,0-4.63-8.73V18.16l9.47-4.92A3.32,3.32,0,0,0,32.91,8.89ZM15.47,6.19a3.09,3.09,0,1,1-3.1,3.09A3.09,3.09,0,0,1,15.47,6.19Zm-9.28,35a3.09,3.09,0,1,1-3.1,3.09A3.09,3.09,0,0,1,6.19,41.21ZM10.31,59.8H2.06V52.19a2.7,2.7,0,0,1,2.7-2.7H7.61a2.7,2.7,0,0,1,2.7,2.7Zm16.5-7.61V59.8H18.56V52.19a2.7,2.7,0,0,1,2.7-2.7h2.85A2.7,2.7,0,0,1,26.81,52.19Zm-4.13-11a3.09,3.09,0,1,1-3.09,3.09A3.09,3.09,0,0,1,22.68,41.21ZM31,10.61a1.36,1.36,0,0,1-.78.76l-10.1,5.24a1,1,0,0,0-.56.92V40.2A5.08,5.08,0,0,0,18,46.4H16.5V28.87H14.44V46.4H10.88a5.07,5.07,0,0,0,.46-2.06h0V18.56a1,1,0,0,0-2-.31l-3.08,9.8a1.25,1.25,0,0,1-1.59.74.75.75,0,0,1-.13-.06A1.25,1.25,0,0,1,4,27.1l2.76-9.49a5,5,0,0,1,4.62-3.17h7.3a1,1,0,0,0,.47-.12L29.35,9A1.27,1.27,0,0,1,31,10.61Z"></path><path class="fb72d0d0-af5f-4ec3-a4b6-34b003dfab5e" d="M42.78,48a5.16,5.16,0,1,0-7.29-.09l.09.09A4.74,4.74,0,0,0,33,52.19v8.65a1,1,0,0,0,1,1H44.34a1,1,0,0,0,1-1h0V52.19A4.77,4.77,0,0,0,42.78,48Zm-3.6-6.77a3.09,3.09,0,1,1-3.09,3.09A3.09,3.09,0,0,1,39.18,41.21ZM43.31,59.8H35.06V52.19a2.7,2.7,0,0,1,2.7-2.7H40.6a2.71,2.71,0,0,1,2.71,2.7Z"></path><path class="fb72d0d0-af5f-4ec3-a4b6-34b003dfab5e" d="M59.28,48A5.16,5.16,0,1,0,52,47.89l.09.09a4.77,4.77,0,0,0-2.59,4.21v8.65a1,1,0,0,0,1,1H60.84a1,1,0,0,0,1-1h0V52.19A4.77,4.77,0,0,0,59.28,48Zm-3.6-6.77a3.09,3.09,0,1,1-3.09,3.09A3.09,3.09,0,0,1,55.68,41.21ZM59.8,59.8H51.56V52.19a2.7,2.7,0,0,1,2.7-2.7H57.1a2.7,2.7,0,0,1,2.7,2.7Z"></path></g></g></g></svg>