<svg xmlns="http://www.w3.org/2000/svg" width="66.65" height="66.81" viewBox="0 0 66.65 66.81"><defs><style>
      .efacd668-6355-4c4a-b146-c85ec334e0ec {
        fill: #0f4e8a;
      }
    </style></defs><g id="f92652ee-a713-4ec6-b418-675d2c5628d3" data-name="Livello 2"><g id="abe0122d-f3e2-426a-bec6-b43c5bf08b1d" data-name="Livello 1"><g><g><path class="efacd668-6355-4c4a-b146-c85ec334e0ec" d="M34.15,66.81H12.33a5.92,5.92,0,0,1-5.1-8.91l11.17-19V23.66a1.2,1.2,0,0,1,1.2-1.2h6a1.2,1.2,0,0,1,1.2,1.2V38.88L39,57.82a5.83,5.83,0,0,1-4.89,9ZM20.8,24.86V39.24a1.22,1.22,0,0,1-.17.61L9.29,59.12a3.52,3.52,0,0,0,3,5.29H34.15A3.43,3.43,0,0,0,37,59.12L24.59,39.89a1.15,1.15,0,0,1-.19-.65V24.86Z"></path><path class="efacd668-6355-4c4a-b146-c85ec334e0ec" d="M20.8,62H12.47a1.2,1.2,0,0,1-1.2-1.2,1.16,1.16,0,0,1,.17-.6l10.18-17.3,2.06,1.21L14.57,59.61H20.8Z"></path><path class="efacd668-6355-4c4a-b146-c85ec334e0ec" d="M54.36,66.81H43.57a6,6,0,0,1-6-6V41.64a4.8,4.8,0,0,1,4.79-4.8H61.05a2.89,2.89,0,0,1,2.05,4.94l-2.75,2.75V60.81A6,6,0,0,1,54.36,66.81Zm-12-27.57A2.39,2.39,0,0,0,40,41.64V60.81a3.6,3.6,0,0,0,3.59,3.6H54.36A3.6,3.6,0,0,0,58,60.81V44a1.21,1.21,0,0,1,.35-.84l3.1-3.1a.48.48,0,0,0,0-.7.47.47,0,0,0-.35-.15Z"></path><path class="efacd668-6355-4c4a-b146-c85ec334e0ec" d="M54.36,62h-4.8v-2.4h3.6V44h2.4V60.81A1.2,1.2,0,0,1,54.36,62Z"></path><path class="efacd668-6355-4c4a-b146-c85ec334e0ec" d="M42.37,44H46v2.4h-3.6Z"></path><path class="efacd668-6355-4c4a-b146-c85ec334e0ec" d="M42.37,48.83h2.4v2.4h-2.4Z"></path><path class="efacd668-6355-4c4a-b146-c85ec334e0ec" d="M42.37,53.62H46V56h-3.6Z"></path><path class="efacd668-6355-4c4a-b146-c85ec334e0ec" d="M42.37,58.42h2.4v2.39h-2.4Z"></path><path class="efacd668-6355-4c4a-b146-c85ec334e0ec" d="M30.39,58.42h2.39v2.39H30.39Z"></path><path class="efacd668-6355-4c4a-b146-c85ec334e0ec" d="M26.79,53.62h2.4V56h-2.4Z"></path></g><path class="efacd668-6355-4c4a-b146-c85ec334e0ec" d="M66.65,31.08A13.68,13.68,0,0,0,56.63,18,19,19,0,0,0,37.86,0,19.6,19.6,0,0,0,22.37,7.78l-.25-.11-.67-.3-.39-.14c-.23-.08-.45-.15-.68-.21L20,6.92a6.35,6.35,0,0,0-.76-.13,1.86,1.86,0,0,0-.34-.06,10.32,10.32,0,0,0-1.11-.06,10,10,0,0,0-10,10c0,.14,0,.28,0,.43A15.34,15.34,0,0,0,0,30.16,14.28,14.28,0,0,0,10.9,44l1.41-2A12.06,12.06,0,0,1,2.22,30.16,13.22,13.22,0,0,1,9.37,18.77l.63-.29v-.7c0-.14,0-.28,0-.42V17c0-.1,0-.2,0-.3a7.79,7.79,0,0,1,7.78-7.78,8.42,8.42,0,0,1,1,.08l.26,0a6.59,6.59,0,0,1,.88.2l.11,0a7.41,7.41,0,0,1,.93.35l.23.11c.27.14.53.29.79.45a7.77,7.77,0,0,1,3.56,6.52,1.11,1.11,0,1,0,2.22,0A10,10,0,0,0,24.22,9,17.61,17.61,0,0,1,37.86,2.22a16.79,16.79,0,0,1,16.5,15.43,21.19,21.19,0,0,0-4.54.14,1.11,1.11,0,0,0-.93,1.27A1.12,1.12,0,0,0,50,20l.17,0a20.66,20.66,0,0,1,5.2,0,11.39,11.39,0,0,1,9.07,11.1,11.17,11.17,0,0,1-.65,3.71L65.72,36A13.35,13.35,0,0,0,66.65,31.08Z"></path></g></g></g></svg>